<svg width="219" height="30" viewBox="0 0 219 30" fill="none" xmlns="http://www.w3.org/2000/svg">
<path d="M161.466 28.9292H156.106C156.034 28.2454 155.961 27.5799 155.861 26.6682C153.226 29.4854 150.056 29.6677 146.74 28.9657C143.006 28.1816 140.907 24.8265 141.834 21.2616C142.57 18.4626 144.768 17.4232 147.303 16.9582C148.729 16.6938 150.21 16.6938 151.664 16.6391C152.918 16.5935 154.162 16.63 155.416 16.63C155.47 14.4418 154.48 13.0925 152.554 12.6366C149.729 11.971 147.176 12.746 144.532 14.2868C143.833 12.9101 143.151 11.5516 142.388 10.0655C147.103 7.52179 151.864 6.72858 156.86 8.6341C159.677 9.70083 161.276 11.9893 161.412 14.8886C161.63 19.5111 161.466 24.1427 161.466 28.9201V28.9292ZM155.398 20.2313C153.517 20.2313 151.7 20.1493 149.901 20.2587C148.729 20.3316 147.748 20.8969 147.566 22.2371C147.394 23.4862 147.848 24.4253 149.056 24.8903C151.809 25.9479 156.406 24.5438 155.398 20.2313Z" fill="white"/>
<path d="M187.804 11.3602C191.52 8.5338 199.342 8.15999 203.048 10.5578C204.593 11.5608 205.883 12.9283 206.028 14.7427C206.401 19.4381 206.51 24.1518 206.728 28.9201H200.205C200.132 28.2637 200.069 27.6437 199.969 26.7593C198.524 28.5919 196.734 29.2301 194.699 29.2848C192.746 29.3395 190.884 29.066 189.239 27.899C185.76 25.4282 186.159 19.976 190.111 18.4261C192.019 17.6785 194.227 17.6329 196.307 17.3685C197.343 17.2408 198.397 17.3502 199.451 17.3502C199.324 15.3262 198.279 14.1592 196.198 14.2412C194.145 14.3233 192.11 14.8977 189.784 15.2989C189.276 14.2868 188.549 12.8645 187.795 11.3693L187.804 11.3602ZM199.669 21.6445C199.542 21.5077 199.26 20.9425 198.96 20.9425C197.607 20.9151 196.226 20.8969 194.917 21.1613C193.5 21.4439 193.037 23.313 194.091 24.2612C195.19 25.2458 196.489 25.182 197.77 24.6441C198.942 24.1609 199.623 23.2947 199.669 21.6354V21.6445Z" fill="white"/>
<path d="M139.644 12.9922C138.163 13.7854 136.674 14.5968 135.202 15.3809C132.385 12.2172 128.97 11.7066 126.471 14.0133C124.164 16.1377 124.1 20.596 126.344 22.7842C128.842 25.2276 132.195 24.79 135.22 21.5442C136.683 22.3374 138.173 23.1489 139.662 23.9512C137.864 28.1816 132.867 30.1601 127.207 28.9566C121.983 27.8443 118.504 23.5136 118.595 18.2073C118.676 13.0469 122.292 8.86205 127.516 7.85914C133.021 6.81065 138 8.87116 139.644 12.974V12.9922Z" fill="white"/>
<path d="M172.759 28.9384H166.936V0.0638123H172.759V28.9384Z" fill="white"/>
<path d="M211.67 9.42731H217.839V28.8745H211.67V9.42731Z" fill="white"/>
<path d="M111.654 17.5964C112.671 11.4696 108.601 9.07172 103.041 10.4302C101.506 10.804 100.098 11.6702 98.508 12.354C98.3535 12.126 98.081 11.7249 97.8266 11.3419C100.761 8.52468 106.557 7.54913 110.082 9.22672C112.126 10.2023 113.189 11.889 113.571 14.0407C113.698 14.7792 113.689 15.545 113.689 16.3018C113.698 20.4775 113.689 24.6532 113.689 28.9019H111.945V25.3735C109.392 28.9201 106.13 29.4125 102.578 28.9839C99.6254 28.6284 97.5631 26.7593 97.2452 24.2338C96.8091 20.7966 98.7078 18.2893 102.36 17.8791C104.858 17.5964 107.393 17.6785 109.919 17.6147C110.509 17.5964 111.1 17.6147 111.645 17.6147L111.654 17.5964ZM111.645 18.9367C108.465 19.0825 105.258 19.1099 102.087 19.4199C100.425 19.584 99.2984 21.0519 99.0985 22.6018C98.8623 24.4891 99.5891 26.112 101.279 26.8414C104.086 28.0631 106.884 27.9537 109.455 26.2032C111.972 24.4891 112.181 21.9727 111.645 18.9367Z" fill="white"/>
<path d="M91.0947 28.911H89.3686C89.3686 27.8078 89.3686 26.7137 89.3686 25.6288C89.3686 22.9574 89.3686 20.286 89.3686 17.6147C89.3686 12.7369 87.1882 10.2296 82.8547 10.1111C78.185 9.98346 75.0235 12.8554 74.8872 17.487C74.7873 20.906 74.8599 24.3341 74.8509 27.7622C74.8509 28.1087 74.8236 28.4551 74.8054 28.8837H73.0884V8.67968H74.8145V12.7825C77.0312 9.54583 79.8294 8.33323 83.2908 8.4244C87.5425 8.53381 90.6405 10.7949 90.9948 14.998C91.3855 19.584 91.0857 24.2247 91.0857 28.911H91.0947Z" fill="white"/>
<path d="M47.0783 8.67969H48.7862C48.7862 12.4178 48.7862 16.0921 48.7862 19.7572C48.7862 20.514 48.759 21.2798 48.8771 22.0183C49.3949 25.3917 51.5662 27.2699 55.1003 27.4522C58.8887 27.6528 61.9231 25.5923 62.7407 22.1733C62.986 21.1522 63.0587 20.0855 63.0769 19.037C63.1132 15.618 63.095 12.199 63.095 8.67969H64.8757V28.911C64.3488 28.9384 63.8672 28.9657 63.1677 29.0022V24.7718C60.3423 28.9931 56.672 29.6678 52.5383 28.7743C49.4313 28.0996 47.3872 25.9935 47.1782 22.9574C46.8512 18.2529 47.0874 13.5119 47.0874 8.6888L47.0783 8.67969Z" fill="white"/>
<path d="M37.4116 0H39.0015V28.9201C38.5109 28.9475 38.0203 28.9657 37.4116 28.9931V0Z" fill="white"/>
<path d="M180.745 29.1481C182.902 29.1481 184.651 27.3928 184.651 25.2276C184.651 23.0624 182.902 21.3072 180.745 21.3072C178.587 21.3072 176.838 23.0624 176.838 25.2276C176.838 27.3928 178.587 29.1481 180.745 29.1481Z" fill="url(#paint0_linear_79_335)"/>
<path d="M172.759 0.0638123H217.194C218.184 0.0638123 218.993 0.875253 218.993 1.86904V3.91132C218.993 4.90511 218.184 5.71655 217.194 5.71655H172.759V0.0638123Z" fill="url(#paint1_linear_79_335)"/>
<path d="M13.9908 14.3324H3.32509C1.49902 14.3324 0 12.8281 0 10.9955V3.61959C0 1.78701 1.49902 0.282654 3.32509 0.282654H10.6657C12.4918 0.282654 13.9908 1.78701 13.9908 3.61959V14.3233V14.3324Z" fill="url(#paint2_linear_79_335)"/>
<path d="M25.8737 14.3324H15.208V3.61959C15.208 1.78701 16.707 0.282654 18.5331 0.282654H25.8737C27.6998 0.282654 29.1988 1.78701 29.1988 3.61959V10.9864C29.1988 12.819 27.6998 14.3233 25.8737 14.3233V14.3324Z" fill="url(#paint3_linear_79_335)"/>
<path d="M10.6657 29.5948H3.32509C1.49902 29.5948 0 28.0905 0 26.2579V18.8911C0 17.0585 1.49902 15.5542 3.32509 15.5542H13.9908V26.2579C13.9908 28.0905 12.4918 29.5948 10.6657 29.5948Z" fill="url(#paint4_linear_79_335)"/>
<path d="M25.8737 29.5948H18.5331C16.707 29.5948 15.208 28.0905 15.208 26.2579V15.5542H25.8737C27.6998 15.5542 29.1988 17.0585 29.1988 18.8911V26.2579C29.1988 28.0905 27.6998 29.5948 25.8737 29.5948Z" fill="url(#paint5_linear_79_335)"/>
<path d="M21.3225 8.35146C21.3225 8.35146 21.3861 8.29675 21.4133 8.2694C22.4581 7.22091 23.4938 6.18154 24.5386 5.13304C24.7657 4.90511 25.0291 4.85952 25.2744 4.99628C25.5833 5.17863 25.656 5.57979 25.4289 5.86243C25.4016 5.8989 25.3653 5.92625 25.338 5.96272C24.157 7.13885 22.985 8.31499 21.804 9.482C21.5224 9.76464 21.2226 9.77376 20.9227 9.50024C20.3141 8.94408 19.7054 8.37881 19.0876 7.82265C18.9331 7.67678 18.8423 7.50355 18.8696 7.29385C18.9241 6.86533 19.4146 6.64652 19.7508 6.92004C19.987 7.1115 20.196 7.3212 20.4231 7.52178C20.7047 7.77707 20.9863 8.04147 21.268 8.29675C21.2861 8.31499 21.3043 8.33322 21.3316 8.35146H21.3225Z" fill="white"/>
<defs>
<linearGradient id="paint0_linear_79_335" x1="176.838" y1="25.2276" x2="184.651" y2="25.2276" gradientUnits="userSpaceOnUse">
<stop stop-color="#BB86F4"/>
<stop offset="1" stop-color="#FDA893"/>
</linearGradient>
<linearGradient id="paint1_linear_79_335" x1="172.759" y1="2.8993" x2="219.002" y2="2.8993" gradientUnits="userSpaceOnUse">
<stop stop-color="#BB86F4" stop-opacity="0.4"/>
<stop offset="1" stop-color="#FDA893"/>
</linearGradient>
<linearGradient id="paint2_linear_79_335" x1="3.59193" y1="10.3862" x2="15.8609" y2="-1.83924" gradientUnits="userSpaceOnUse">
<stop stop-color="#B985F5"/>
<stop offset="1" stop-color="#FCA794"/>
</linearGradient>
<linearGradient id="paint3_linear_79_335" x1="15.2423" y1="14.5737" x2="28.5086" y2="1.35454" gradientUnits="userSpaceOnUse">
<stop stop-color="#B985F5"/>
<stop offset="1" stop-color="#FCA794"/>
</linearGradient>
<linearGradient id="paint4_linear_79_335" x1="1.01791" y1="28.849" x2="14.2842" y2="15.6298" gradientUnits="userSpaceOnUse">
<stop stop-color="#B985F5"/>
<stop offset="1" stop-color="#FCA794"/>
</linearGradient>
<linearGradient id="paint5_linear_79_335" x1="17.8863" y1="24.7317" x2="30.1553" y2="12.5063" gradientUnits="userSpaceOnUse">
<stop stop-color="#B985F5"/>
<stop offset="1" stop-color="#FCA794"/>
</linearGradient>
</defs>
</svg>
